<svg width="145" height="24" viewBox="0 0 145 24" fill="none" xmlns="http://www.w3.org/2000/svg">
<path d="M26.424 0.535999V23H20.952V9.528L15.928 23H11.512L6.456 9.496V23H0.984V0.535999H7.448L13.752 16.088L19.992 0.535999H26.424Z" fill="#FF4A17"/>
<path d="M38.487 23.256C36.7377 23.256 35.159 22.8827 33.751 22.136C32.3643 21.3893 31.2657 20.3227 30.455 18.936C29.6657 17.5493 29.271 15.928 29.271 14.072C29.271 12.2373 29.6763 10.6267 30.487 9.24C31.2977 7.832 32.407 6.75467 33.815 6.008C35.223 5.26133 36.8017 4.888 38.551 4.888C40.3003 4.888 41.879 5.26133 43.287 6.008C44.695 6.75467 45.8043 7.832 46.615 9.24C47.4257 10.6267 47.831 12.2373 47.831 14.072C47.831 15.9067 47.415 17.528 46.583 18.936C45.7723 20.3227 44.6523 21.3893 43.223 22.136C41.815 22.8827 40.2363 23.256 38.487 23.256ZM38.487 18.52C39.5323 18.52 40.4177 18.136 41.143 17.368C41.8897 16.6 42.263 15.5013 42.263 14.072C42.263 12.6427 41.9003 11.544 41.175 10.776C40.471 10.008 39.5963 9.624 38.551 9.624C37.4843 9.624 36.599 10.008 35.895 10.776C35.191 11.5227 34.839 12.6213 34.839 14.072C34.839 15.5013 35.1803 16.6 35.863 17.368C36.567 18.136 37.4417 18.52 38.487 18.52ZM61.614 4.952C63.7047 4.952 65.3687 5.63467 66.606 7C67.8647 8.344 68.494 10.2 68.494 12.568V23H63.054V13.304C63.054 12.1093 62.7447 11.1813 62.126 10.52C61.5073 9.85867 60.6753 9.528 59.63 9.528C58.5847 9.528 57.7527 9.85867 57.134 10.52C56.5153 11.1813 56.206 12.1093 56.206 13.304V23H50.734V5.144H56.206V7.512C56.7607 6.72267 57.5073 6.104 58.446 5.656C59.3847 5.18667 60.4407 4.952 61.614 4.952ZM80.4245 23.256C78.6752 23.256 77.0965 22.8827 75.6885 22.136C74.3018 21.3893 73.2032 20.3227 72.3925 18.936C71.6032 17.5493 71.2085 15.928 71.2085 14.072C71.2085 12.2373 71.6138 10.6267 72.4245 9.24C73.2352 7.832 74.3445 6.75467 75.7525 6.008C77.1605 5.26133 78.7392 4.888 80.4885 4.888C82.2378 4.888 83.8165 5.26133 85.2245 6.008C86.6325 6.75467 87.7418 7.832 88.5525 9.24C89.3632 10.6267 89.7685 12.2373 89.7685 14.072C89.7685 15.9067 89.3525 17.528 88.5205 18.936C87.7098 20.3227 86.5898 21.3893 85.1605 22.136C83.7525 22.8827 82.1738 23.256 80.4245 23.256ZM80.4245 18.52C81.4698 18.52 82.3552 18.136 83.0805 17.368C83.8272 16.6 84.2005 15.5013 84.2005 14.072C84.2005 12.6427 83.8378 11.544 83.1125 10.776C82.4085 10.008 81.5338 9.624 80.4885 9.624C79.4218 9.624 78.5365 10.008 77.8325 10.776C77.1285 11.5227 76.7765 12.6213 76.7765 14.072C76.7765 15.5013 77.1178 16.6 77.8005 17.368C78.5045 18.136 79.3792 18.52 80.4245 18.52ZM115.456 4.952C117.674 4.952 119.434 5.624 120.736 6.968C122.058 8.312 122.72 10.1787 122.72 12.568V23H117.28V13.304C117.28 12.152 116.97 11.2667 116.352 10.648C115.754 10.008 114.922 9.688 113.856 9.688C112.789 9.688 111.946 10.008 111.328 10.648C110.73 11.2667 110.432 12.152 110.432 13.304V23H104.992V13.304C104.992 12.152 104.682 11.2667 104.064 10.648C103.466 10.008 102.634 9.688 101.568 9.688C100.501 9.688 99.6582 10.008 99.0395 10.648C98.4422 11.2667 98.1435 12.152 98.1435 13.304V23H92.6715V5.144H98.1435V7.384C98.6982 6.63733 99.4235 6.05067 100.32 5.624C101.216 5.176 102.229 4.952 103.36 4.952C104.704 4.952 105.898 5.24 106.944 5.816C108.01 6.392 108.842 7.21333 109.44 8.28C110.058 7.29867 110.901 6.49867 111.968 5.88C113.034 5.26133 114.197 4.952 115.456 4.952ZM134.675 23.256C132.925 23.256 131.347 22.8827 129.939 22.136C128.552 21.3893 127.453 20.3227 126.643 18.936C125.853 17.5493 125.459 15.928 125.459 14.072C125.459 12.2373 125.864 10.6267 126.674 9.24C127.485 7.832 128.595 6.75467 130.003 6.008C131.411 5.26133 132.989 4.888 134.739 4.888C136.488 4.888 138.067 5.26133 139.475 6.008C140.883 6.75467 141.992 7.832 142.803 9.24C143.613 10.6267 144.019 12.2373 144.019 14.072C144.019 15.9067 143.603 17.528 142.771 18.936C141.96 20.3227 140.84 21.3893 139.411 22.136C138.003 22.8827 136.424 23.256 134.675 23.256ZM134.675 18.52C135.72 18.52 136.605 18.136 137.331 17.368C138.077 16.6 138.451 15.5013 138.451 14.072C138.451 12.6427 138.088 11.544 137.363 10.776C136.659 10.008 135.784 9.624 134.739 9.624C133.672 9.624 132.787 10.008 132.083 10.776C131.379 11.5227 131.027 12.6213 131.027 14.072C131.027 15.5013 131.368 16.6 132.051 17.368C132.755 18.136 133.629 18.52 134.675 18.52Z" fill="#FEFEFE"/>
</svg>
